<?xml version="1.0" encoding="UTF-8"?>
<svg xmlns="http://www.w3.org/2000/svg" xmlns:xlink="http://www.w3.org/1999/xlink" width="4500" height="1500" viewBox="0 0 4500 1500">
<path fill-rule="evenodd" fill="rgb(0%, 0%, 0%)" fill-opacity="1" d="M 2670.46875 591.929688 L 2628.128906 634.257812 C 2625.691406 636.703125 2625.679688 641.03125 2628.128906 643.476562 L 2734.640625 749.996094 L 2628.128906 856.515625 C 2626.851562 857.789062 2626.210938 859.453125 2626.210938 861.125 C 2626.210938 862.796875 2626.851562 864.460938 2628.128906 865.734375 L 2670.460938 908.070312 C 2671.691406 909.292969 2673.339844 909.984375 2675.070312 909.984375 C 2676.800781 909.984375 2678.460938 909.292969 2679.679688 908.070312 L 2833.148438 754.601562 C 2835.601562 752.160156 2835.589844 747.828125 2833.148438 745.382812 L 2679.691406 591.929688 C 2677.140625 589.378906 2673.019531 589.378906 2670.46875 591.929688 "/>
<path fill-rule="evenodd" fill="rgb(0%, 0%, 0%)" fill-opacity="1" d="M 1858.238281 588.5625 L 2139.519531 588.5625 C 2149.988281 588.5625 2160.070312 592.585938 2167.691406 599.785156 L 2312.320312 737.046875 C 2319.75 744.085938 2319.738281 755.917969 2312.320312 762.953125 L 2167.691406 900.1875 C 2160.070312 907.417969 2149.988281 911.4375 2139.519531 911.4375 L 1858.238281 911.4375 C 1847.578125 911.4375 1842.390625 898.425781 1850.121094 891.085938 L 1998.828125 750 L 1850.121094 608.914062 C 1842.390625 601.574219 1847.578125 588.5625 1858.238281 588.5625 "/>
<path fill-rule="evenodd" fill="rgb(0%, 0%, 0%)" fill-opacity="1" d="M 3428.71875 795.148438 L 3310 913.867188 L 3264.859375 868.722656 L 3351.648438 781.917969 L 3117.828125 781.917969 L 3117.828125 718.074219 L 3351.648438 718.074219 L 3264.859375 631.285156 L 3310 586.132812 L 3428.71875 704.851562 L 3473.871094 749.996094 L 3428.71875 795.148438 "/>
<path fill-rule="evenodd" fill="rgb(0%, 0%, 0%)" fill-opacity="1" d="M 222.378906 874.410156 C 215.078125 874.410156 209.140625 880.339844 209.140625 887.648438 C 209.140625 894.960938 215.078125 900.890625 222.378906 900.890625 C 229.699219 900.890625 235.617188 894.960938 235.617188 887.648438 C 235.621094 880.339844 229.695312 874.410156 222.378906 874.410156 "/>
<path fill-rule="evenodd" fill="rgb(0%, 0%, 0%)" fill-opacity="1" d="M 222.378906 599.109375 C 215.078125 599.109375 209.140625 605.03125 209.140625 612.339844 C 209.140625 619.648438 215.078125 625.578125 222.378906 625.578125 C 229.699219 625.578125 235.617188 619.648438 235.617188 612.339844 C 235.621094 605.03125 229.695312 599.109375 222.378906 599.109375 "/>
<path fill-rule="evenodd" fill="rgb(0%, 0%, 0%)" fill-opacity="1" d="M 256.78125 874.410156 C 249.476562 874.410156 243.542969 880.339844 243.542969 887.648438 C 243.546875 894.960938 249.472656 900.890625 256.78125 900.890625 C 264.09375 900.890625 270.019531 894.960938 270.019531 887.648438 C 270.019531 880.339844 264.089844 874.410156 256.78125 874.410156 "/>
<path fill-rule="evenodd" fill="rgb(0%, 0%, 0%)" fill-opacity="1" d="M 256.78125 840.011719 C 249.476562 840.011719 243.542969 845.941406 243.542969 853.25 C 243.546875 860.566406 249.472656 866.488281 256.78125 866.488281 C 264.09375 866.488281 270.019531 860.566406 270.019531 853.25 C 270.019531 845.941406 264.089844 840.011719 256.78125 840.011719 "/>
<path fill-rule="evenodd" fill="rgb(0%, 0%, 0%)" fill-opacity="1" d="M 256.78125 633.535156 C 249.476562 633.535156 243.542969 639.464844 243.542969 646.773438 C 243.546875 654.082031 249.472656 660.003906 256.78125 660.003906 C 264.09375 660.003906 270.019531 654.082031 270.019531 646.773438 C 270.019531 639.464844 264.089844 633.535156 256.78125 633.535156 "/>
<path fill-rule="evenodd" fill="rgb(0%, 0%, 0%)" fill-opacity="1" d="M 256.78125 599.109375 C 249.476562 599.109375 243.542969 605.03125 243.542969 612.339844 C 243.546875 619.648438 249.472656 625.578125 256.78125 625.578125 C 264.09375 625.578125 270.019531 619.648438 270.019531 612.339844 C 270.019531 605.03125 264.089844 599.109375 256.78125 599.109375 "/>
<path fill-rule="evenodd" fill="rgb(0%, 0%, 0%)" fill-opacity="1" d="M 291.214844 874.410156 C 283.90625 874.410156 277.972656 880.339844 277.972656 887.648438 C 277.976562 894.960938 283.902344 900.890625 291.210938 900.890625 C 298.523438 900.890625 304.449219 894.960938 304.449219 887.648438 C 304.453125 880.339844 298.519531 874.410156 291.214844 874.410156 "/>
<path fill-rule="evenodd" fill="rgb(0%, 0%, 0%)" fill-opacity="1" d="M 291.214844 840.011719 C 283.90625 840.011719 277.972656 845.941406 277.972656 853.25 C 277.976562 860.566406 283.902344 866.488281 291.210938 866.488281 C 298.523438 866.488281 304.449219 860.566406 304.449219 853.25 C 304.453125 845.941406 298.519531 840.011719 291.214844 840.011719 "/>
<path fill-rule="evenodd" fill="rgb(0%, 0%, 0%)" fill-opacity="1" d="M 291.214844 805.589844 C 283.90625 805.589844 277.972656 811.511719 277.972656 818.828125 C 277.976562 826.136719 283.902344 832.058594 291.210938 832.058594 C 298.523438 832.058594 304.449219 826.136719 304.449219 818.828125 C 304.453125 811.511719 298.519531 805.589844 291.214844 805.589844 "/>
<path fill-rule="evenodd" fill="rgb(0%, 0%, 0%)" fill-opacity="1" d="M 291.214844 667.933594 C 283.90625 667.933594 277.972656 673.863281 277.972656 681.171875 C 277.976562 688.480469 283.902344 694.402344 291.210938 694.402344 C 298.523438 694.402344 304.449219 688.480469 304.449219 681.171875 C 304.453125 673.863281 298.519531 667.933594 291.214844 667.933594 "/>
<path fill-rule="evenodd" fill="rgb(0%, 0%, 0%)" fill-opacity="1" d="M 291.214844 633.535156 C 283.90625 633.535156 277.972656 639.464844 277.972656 646.773438 C 277.976562 654.082031 283.902344 660.003906 291.210938 660.003906 C 298.523438 660.003906 304.449219 654.082031 304.449219 646.773438 C 304.453125 639.464844 298.519531 633.535156 291.214844 633.535156 "/>
<path fill-rule="evenodd" fill="rgb(0%, 0%, 0%)" fill-opacity="1" d="M 291.214844 599.109375 C 283.90625 599.109375 277.972656 605.03125 277.972656 612.339844 C 277.976562 619.648438 283.902344 625.578125 291.210938 625.578125 C 298.523438 625.578125 304.449219 619.648438 304.449219 612.339844 C 304.453125 605.03125 298.519531 599.109375 291.214844 599.109375 "/>
<path fill-rule="evenodd" fill="rgb(0%, 0%, 0%)" fill-opacity="1" d="M 325.605469 874.410156 C 318.304688 874.410156 312.371094 880.339844 312.371094 887.648438 C 312.375 894.960938 318.300781 900.890625 325.605469 900.890625 C 332.921875 900.890625 338.851562 894.960938 338.851562 887.648438 C 338.851562 880.339844 332.921875 874.410156 325.605469 874.410156 "/>
<path fill-rule="evenodd" fill="rgb(0%, 0%, 0%)" fill-opacity="1" d="M 325.605469 840.011719 C 318.304688 840.011719 312.371094 845.941406 312.371094 853.25 C 312.375 860.566406 318.300781 866.488281 325.605469 866.488281 C 332.921875 866.488281 338.851562 860.566406 338.851562 853.25 C 338.851562 845.941406 332.921875 840.011719 325.605469 840.011719 "/>
<path fill-rule="evenodd" fill="rgb(0%, 0%, 0%)" fill-opacity="1" d="M 325.605469 805.589844 C 318.304688 805.589844 312.371094 811.511719 312.371094 818.828125 C 312.375 826.136719 318.300781 832.058594 325.605469 832.058594 C 332.921875 832.058594 338.851562 826.136719 338.851562 818.828125 C 338.851562 811.511719 332.921875 805.589844 325.605469 805.589844 "/>
<path fill-rule="evenodd" fill="rgb(0%, 0%, 0%)" fill-opacity="1" d="M 325.605469 771.1875 C 318.304688 771.1875 312.371094 777.117188 312.371094 784.425781 C 312.375 791.734375 318.300781 797.664062 325.605469 797.664062 C 332.921875 797.664062 338.851562 791.734375 338.851562 784.425781 C 338.851562 777.117188 332.921875 771.1875 325.605469 771.1875 "/>
<path fill-rule="evenodd" fill="rgb(0%, 0%, 0%)" fill-opacity="1" d="M 325.605469 702.363281 C 318.304688 702.363281 312.371094 708.285156 312.371094 715.59375 C 312.375 722.914062 318.300781 728.835938 325.605469 728.835938 C 332.921875 728.835938 338.851562 722.910156 338.851562 715.59375 C 338.851562 708.285156 332.921875 702.363281 325.605469 702.363281 "/>
<path fill-rule="evenodd" fill="rgb(0%, 0%, 0%)" fill-opacity="1" d="M 325.605469 667.933594 C 318.304688 667.933594 312.371094 673.863281 312.371094 681.171875 C 312.375 688.480469 318.300781 694.402344 325.605469 694.402344 C 332.921875 694.402344 338.851562 688.480469 338.851562 681.171875 C 338.851562 673.863281 332.921875 667.933594 325.605469 667.933594 "/>
<path fill-rule="evenodd" fill="rgb(0%, 0%, 0%)" fill-opacity="1" d="M 325.605469 633.535156 C 318.304688 633.535156 312.371094 639.464844 312.371094 646.773438 C 312.375 654.082031 318.300781 660.003906 325.605469 660.003906 C 332.921875 660.003906 338.851562 654.082031 338.851562 646.773438 C 338.851562 639.464844 332.921875 633.535156 325.605469 633.535156 "/>
<path fill-rule="evenodd" fill="rgb(0%, 0%, 0%)" fill-opacity="1" d="M 325.605469 599.109375 C 318.304688 599.109375 312.371094 605.03125 312.371094 612.339844 C 312.375 619.648438 318.300781 625.578125 325.605469 625.578125 C 332.921875 625.578125 338.851562 619.648438 338.851562 612.339844 C 338.851562 605.03125 332.921875 599.109375 325.605469 599.109375 "/>
<path fill-rule="evenodd" fill="rgb(0%, 0%, 0%)" fill-opacity="1" d="M 360.035156 874.410156 C 352.726562 874.410156 346.804688 880.339844 346.804688 887.648438 C 346.804688 894.960938 352.726562 900.890625 360.035156 900.890625 C 367.34375 900.890625 373.273438 894.960938 373.273438 887.648438 C 373.273438 880.339844 367.34375 874.410156 360.035156 874.410156 "/>
<path fill-rule="evenodd" fill="rgb(0%, 0%, 0%)" fill-opacity="1" d="M 360.035156 840.011719 C 352.726562 840.011719 346.804688 845.941406 346.804688 853.25 C 346.804688 860.566406 352.726562 866.488281 360.035156 866.488281 C 367.34375 866.488281 373.273438 860.566406 373.273438 853.25 C 373.273438 845.941406 367.34375 840.011719 360.035156 840.011719 "/>
<path fill-rule="evenodd" fill="rgb(0%, 0%, 0%)" fill-opacity="1" d="M 360.035156 805.589844 C 352.726562 805.589844 346.804688 811.511719 346.804688 818.828125 C 346.804688 826.136719 352.726562 832.058594 360.035156 832.058594 C 367.34375 832.058594 373.273438 826.136719 373.273438 818.828125 C 373.273438 811.511719 367.34375 805.589844 360.035156 805.589844 "/>
<path fill-rule="evenodd" fill="rgb(0%, 0%, 0%)" fill-opacity="1" d="M 360.035156 771.1875 C 352.726562 771.1875 346.804688 777.117188 346.804688 784.425781 C 346.804688 791.734375 352.726562 797.664062 360.035156 797.664062 C 367.34375 797.664062 373.273438 791.734375 373.273438 784.425781 C 373.273438 777.117188 367.34375 771.1875 360.035156 771.1875 "/>
<path fill-rule="evenodd" fill="rgb(0%, 0%, 0%)" fill-opacity="1" d="M 360.035156 736.757812 C 352.726562 736.757812 346.804688 742.6875 346.804688 749.996094 C 346.804688 757.304688 352.726562 763.234375 360.035156 763.234375 C 367.34375 763.234375 373.273438 757.304688 373.273438 749.996094 C 373.273438 742.6875 367.34375 736.757812 360.035156 736.757812 "/>
<path fill-rule="evenodd" fill="rgb(0%, 0%, 0%)" fill-opacity="1" d="M 360.035156 702.363281 C 352.726562 702.363281 346.804688 708.285156 346.804688 715.59375 C 346.804688 722.914062 352.726562 728.835938 360.035156 728.835938 C 367.34375 728.835938 373.273438 722.910156 373.273438 715.59375 C 373.273438 708.285156 367.34375 702.363281 360.035156 702.363281 "/>
<path fill-rule="evenodd" fill="rgb(0%, 0%, 0%)" fill-opacity="1" d="M 360.035156 667.933594 C 352.726562 667.933594 346.804688 673.863281 346.804688 681.171875 C 346.804688 688.480469 352.726562 694.402344 360.035156 694.402344 C 367.34375 694.402344 373.273438 688.480469 373.273438 681.171875 C 373.273438 673.863281 367.34375 667.933594 360.035156 667.933594 "/>
<path fill-rule="evenodd" fill="rgb(0%, 0%, 0%)" fill-opacity="1" d="M 360.035156 633.535156 C 352.726562 633.535156 346.804688 639.464844 346.804688 646.773438 C 346.804688 654.082031 352.726562 660.003906 360.035156 660.003906 C 367.34375 660.003906 373.273438 654.082031 373.273438 646.773438 C 373.273438 639.464844 367.34375 633.535156 360.035156 633.535156 "/>
<path fill-rule="evenodd" fill="rgb(0%, 0%, 0%)" fill-opacity="1" d="M 360.035156 599.109375 C 352.726562 599.109375 346.804688 605.03125 346.804688 612.339844 C 346.804688 619.648438 352.726562 625.578125 360.035156 625.578125 C 367.34375 625.578125 373.273438 619.648438 373.273438 612.339844 C 373.273438 605.03125 367.34375 599.109375 360.035156 599.109375 "/>
<path fill-rule="evenodd" fill="rgb(0%, 0%, 0%)" fill-opacity="1" d="M 394.4375 874.410156 C 387.128906 874.410156 381.195312 880.339844 381.195312 887.648438 C 381.199219 894.960938 387.125 900.890625 394.433594 900.890625 C 401.746094 900.890625 407.664062 894.960938 407.664062 887.648438 C 407.667969 880.339844 401.742188 874.410156 394.4375 874.410156 "/>
<path fill-rule="evenodd" fill="rgb(0%, 0%, 0%)" fill-opacity="1" d="M 394.4375 840.011719 C 387.128906 840.011719 381.195312 845.941406 381.195312 853.25 C 381.199219 860.566406 387.125 866.488281 394.433594 866.488281 C 401.746094 866.488281 407.664062 860.566406 407.664062 853.25 C 407.667969 845.941406 401.742188 840.011719 394.4375 840.011719 "/>
<path fill-rule="evenodd" fill="rgb(0%, 0%, 0%)" fill-opacity="1" d="M 394.4375 805.589844 C 387.128906 805.589844 381.195312 811.511719 381.195312 818.828125 C 381.199219 826.136719 387.125 832.058594 394.433594 832.058594 C 401.746094 832.058594 407.664062 826.136719 407.664062 818.828125 C 407.667969 811.511719 401.742188 805.589844 394.4375 805.589844 "/>
<path fill-rule="evenodd" fill="rgb(0%, 0%, 0%)" fill-opacity="1" d="M 394.4375 771.1875 C 387.128906 771.1875 381.195312 777.117188 381.195312 784.425781 C 381.199219 791.734375 387.125 797.664062 394.433594 797.664062 C 401.746094 797.664062 407.664062 791.734375 407.664062 784.425781 C 407.667969 777.117188 401.742188 771.1875 394.4375 771.1875 "/>
<path fill-rule="evenodd" fill="rgb(0%, 0%, 0%)" fill-opacity="1" d="M 394.4375 736.757812 C 387.128906 736.757812 381.195312 742.6875 381.195312 749.996094 C 381.199219 757.304688 387.125 763.234375 394.433594 763.234375 C 401.746094 763.234375 407.664062 757.304688 407.664062 749.996094 C 407.667969 742.6875 401.742188 736.757812 394.4375 736.757812 "/>
<path fill-rule="evenodd" fill="rgb(0%, 0%, 0%)" fill-opacity="1" d="M 394.4375 702.363281 C 387.128906 702.363281 381.195312 708.285156 381.195312 715.59375 C 381.199219 722.914062 387.125 728.835938 394.433594 728.835938 C 401.746094 728.835938 407.664062 722.910156 407.664062 715.59375 C 407.667969 708.285156 401.742188 702.363281 394.4375 702.363281 "/>
<path fill-rule="evenodd" fill="rgb(0%, 0%, 0%)" fill-opacity="1" d="M 394.4375 667.933594 C 387.128906 667.933594 381.195312 673.863281 381.195312 681.171875 C 381.199219 688.480469 387.125 694.402344 394.433594 694.402344 C 401.746094 694.402344 407.664062 688.480469 407.664062 681.171875 C 407.667969 673.863281 401.742188 667.933594 394.4375 667.933594 "/>
<path fill-rule="evenodd" fill="rgb(0%, 0%, 0%)" fill-opacity="1" d="M 394.4375 633.535156 C 387.128906 633.535156 381.195312 639.464844 381.195312 646.773438 C 381.199219 654.082031 387.125 660.003906 394.433594 660.003906 C 401.746094 660.003906 407.664062 654.082031 407.664062 646.773438 C 407.667969 639.464844 401.742188 633.535156 394.4375 633.535156 "/>
<path fill-rule="evenodd" fill="rgb(0%, 0%, 0%)" fill-opacity="1" d="M 394.4375 599.109375 C 387.128906 599.109375 381.195312 605.03125 381.195312 612.339844 C 381.199219 619.648438 387.125 625.578125 394.433594 625.578125 C 401.746094 625.578125 407.664062 619.648438 407.664062 612.339844 C 407.667969 605.03125 401.742188 599.109375 394.4375 599.109375 "/>
<path fill-rule="evenodd" fill="rgb(0%, 0%, 0%)" fill-opacity="1" d="M 428.867188 874.410156 C 421.558594 874.410156 415.628906 880.339844 415.628906 887.648438 C 415.628906 894.960938 421.558594 900.890625 428.867188 900.890625 C 436.175781 900.890625 442.097656 894.960938 442.097656 887.648438 C 442.097656 880.339844 436.175781 874.410156 428.867188 874.410156 "/>
<path fill-rule="evenodd" fill="rgb(0%, 0%, 0%)" fill-opacity="1" d="M 428.867188 840.011719 C 421.558594 840.011719 415.628906 845.941406 415.628906 853.25 C 415.628906 860.566406 421.558594 866.488281 428.867188 866.488281 C 436.175781 866.488281 442.097656 860.566406 442.097656 853.25 C 442.097656 845.941406 436.175781 840.011719 428.867188 840.011719 "/>
<path fill-rule="evenodd" fill="rgb(0%, 0%, 0%)" fill-opacity="1" d="M 428.867188 805.589844 C 421.558594 805.589844 415.628906 811.511719 415.628906 818.828125 C 415.628906 826.136719 421.558594 832.058594 428.867188 832.058594 C 436.175781 832.058594 442.097656 826.136719 442.097656 818.828125 C 442.097656 811.511719 436.175781 805.589844 428.867188 805.589844 "/>
<path fill-rule="evenodd" fill="rgb(0%, 0%, 0%)" fill-opacity="1" d="M 428.867188 771.1875 C 421.558594 771.1875 415.628906 777.117188 415.628906 784.425781 C 415.628906 791.734375 421.558594 797.664062 428.867188 797.664062 C 436.175781 797.664062 442.097656 791.734375 442.097656 784.425781 C 442.097656 777.117188 436.175781 771.1875 428.867188 771.1875 "/>
<path fill-rule="evenodd" fill="rgb(0%, 0%, 0%)" fill-opacity="1" d="M 428.867188 736.757812 C 421.558594 736.757812 415.628906 742.6875 415.628906 749.996094 C 415.628906 757.304688 421.558594 763.234375 428.867188 763.234375 C 436.175781 763.234375 442.097656 757.304688 442.097656 749.996094 C 442.097656 742.6875 436.175781 736.757812 428.867188 736.757812 "/>
<path fill-rule="evenodd" fill="rgb(0%, 0%, 0%)" fill-opacity="1" d="M 428.867188 702.363281 C 421.558594 702.363281 415.628906 708.285156 415.628906 715.59375 C 415.628906 722.914062 421.558594 728.835938 428.867188 728.835938 C 436.175781 728.835938 442.097656 722.910156 442.097656 715.59375 C 442.097656 708.285156 436.175781 702.363281 428.867188 702.363281 "/>
<path fill-rule="evenodd" fill="rgb(0%, 0%, 0%)" fill-opacity="1" d="M 428.867188 667.933594 C 421.558594 667.933594 415.628906 673.863281 415.628906 681.171875 C 415.628906 688.480469 421.558594 694.402344 428.867188 694.402344 C 436.175781 694.402344 442.097656 688.480469 442.097656 681.171875 C 442.097656 673.863281 436.175781 667.933594 428.867188 667.933594 "/>
<path fill-rule="evenodd" fill="rgb(0%, 0%, 0%)" fill-opacity="1" d="M 428.867188 633.535156 C 421.558594 633.535156 415.628906 639.464844 415.628906 646.773438 C 415.628906 654.082031 421.558594 660.003906 428.867188 660.003906 C 436.175781 660.003906 442.097656 654.082031 442.097656 646.773438 C 442.097656 639.464844 436.175781 633.535156 428.867188 633.535156 "/>
<path fill-rule="evenodd" fill="rgb(0%, 0%, 0%)" fill-opacity="1" d="M 428.867188 599.109375 C 421.558594 599.109375 415.628906 605.03125 415.628906 612.339844 C 415.628906 619.648438 421.558594 625.578125 428.867188 625.578125 C 436.175781 625.578125 442.097656 619.648438 442.097656 612.339844 C 442.097656 605.03125 436.175781 599.109375 428.867188 599.109375 "/>
<path fill-rule="evenodd" fill="rgb(0%, 0%, 0%)" fill-opacity="1" d="M 463.257812 840.011719 C 455.957031 840.011719 450.027344 845.941406 450.027344 853.25 C 450.027344 860.566406 455.957031 866.488281 463.257812 866.488281 C 470.578125 866.488281 476.496094 860.566406 476.496094 853.25 C 476.496094 845.941406 470.574219 840.011719 463.257812 840.011719 "/>
<path fill-rule="evenodd" fill="rgb(0%, 0%, 0%)" fill-opacity="1" d="M 463.257812 805.589844 C 455.957031 805.589844 450.027344 811.511719 450.027344 818.828125 C 450.027344 826.136719 455.957031 832.058594 463.257812 832.058594 C 470.578125 832.058594 476.496094 826.136719 476.496094 818.828125 C 476.496094 811.511719 470.574219 805.589844 463.257812 805.589844 "/>
<path fill-rule="evenodd" fill="rgb(0%, 0%, 0%)" fill-opacity="1" d="M 463.257812 771.1875 C 455.957031 771.1875 450.027344 777.117188 450.027344 784.425781 C 450.027344 791.734375 455.957031 797.664062 463.257812 797.664062 C 470.578125 797.664062 476.496094 791.734375 476.496094 784.425781 C 476.496094 777.117188 470.574219 771.1875 463.257812 771.1875 "/>
<path fill-rule="evenodd" fill="rgb(0%, 0%, 0%)" fill-opacity="1" d="M 463.257812 736.757812 C 455.957031 736.757812 450.027344 742.6875 450.027344 749.996094 C 450.027344 757.304688 455.957031 763.234375 463.257812 763.234375 C 470.578125 763.234375 476.496094 757.304688 476.496094 749.996094 C 476.496094 742.6875 470.574219 736.757812 463.257812 736.757812 "/>
<path fill-rule="evenodd" fill="rgb(0%, 0%, 0%)" fill-opacity="1" d="M 463.257812 702.363281 C 455.957031 702.363281 450.027344 708.285156 450.027344 715.59375 C 450.027344 722.914062 455.957031 728.835938 463.257812 728.835938 C 470.578125 728.835938 476.496094 722.910156 476.496094 715.59375 C 476.496094 708.285156 470.574219 702.363281 463.257812 702.363281 "/>
<path fill-rule="evenodd" fill="rgb(0%, 0%, 0%)" fill-opacity="1" d="M 463.257812 667.933594 C 455.957031 667.933594 450.027344 673.863281 450.027344 681.171875 C 450.027344 688.480469 455.957031 694.402344 463.257812 694.402344 C 470.578125 694.402344 476.496094 688.480469 476.496094 681.171875 C 476.496094 673.863281 470.574219 667.933594 463.257812 667.933594 "/>
<path fill-rule="evenodd" fill="rgb(0%, 0%, 0%)" fill-opacity="1" d="M 463.257812 633.535156 C 455.957031 633.535156 450.027344 639.464844 450.027344 646.773438 C 450.027344 654.082031 455.957031 660.003906 463.257812 660.003906 C 470.578125 660.003906 476.496094 654.082031 476.496094 646.773438 C 476.496094 639.464844 470.574219 633.535156 463.257812 633.535156 "/>
<path fill-rule="evenodd" fill="rgb(0%, 0%, 0%)" fill-opacity="1" d="M 497.6875 805.589844 C 490.382812 805.589844 484.449219 811.511719 484.449219 818.828125 C 484.449219 826.136719 490.378906 832.058594 497.6875 832.058594 C 505.003906 832.058594 510.929688 826.136719 510.929688 818.828125 C 510.929688 811.511719 504.996094 805.589844 497.6875 805.589844 "/>
<path fill-rule="evenodd" fill="rgb(0%, 0%, 0%)" fill-opacity="1" d="M 497.6875 771.1875 C 490.382812 771.1875 484.449219 777.117188 484.449219 784.425781 C 484.449219 791.734375 490.378906 797.664062 497.6875 797.664062 C 505.003906 797.664062 510.929688 791.734375 510.929688 784.425781 C 510.929688 777.117188 504.996094 771.1875 497.6875 771.1875 "/>
<path fill-rule="evenodd" fill="rgb(0%, 0%, 0%)" fill-opacity="1" d="M 497.6875 736.757812 C 490.382812 736.757812 484.449219 742.6875 484.449219 749.996094 C 484.449219 757.304688 490.378906 763.234375 497.6875 763.234375 C 505.003906 763.234375 510.929688 757.304688 510.929688 749.996094 C 510.929688 742.6875 504.996094 736.757812 497.6875 736.757812 "/>
<path fill-rule="evenodd" fill="rgb(0%, 0%, 0%)" fill-opacity="1" d="M 497.6875 702.363281 C 490.382812 702.363281 484.449219 708.285156 484.449219 715.59375 C 484.449219 722.914062 490.378906 728.835938 497.6875 728.835938 C 505.003906 728.835938 510.929688 722.910156 510.929688 715.59375 C 510.929688 708.285156 504.996094 702.363281 497.6875 702.363281 "/>
<path fill-rule="evenodd" fill="rgb(0%, 0%, 0%)" fill-opacity="1" d="M 497.6875 667.933594 C 490.382812 667.933594 484.449219 673.863281 484.449219 681.171875 C 484.449219 688.480469 490.378906 694.402344 497.6875 694.402344 C 505.003906 694.402344 510.929688 688.480469 510.929688 681.171875 C 510.929688 673.863281 504.996094 667.933594 497.6875 667.933594 "/>
<path fill-rule="evenodd" fill="rgb(0%, 0%, 0%)" fill-opacity="1" d="M 532.09375 771.1875 C 524.78125 771.1875 518.851562 777.117188 518.851562 784.425781 C 518.855469 791.734375 524.78125 797.664062 532.089844 797.664062 C 539.402344 797.664062 545.328125 791.734375 545.328125 784.425781 C 545.332031 777.117188 539.398438 771.1875 532.09375 771.1875 "/>
<path fill-rule="evenodd" fill="rgb(0%, 0%, 0%)" fill-opacity="1" d="M 532.09375 736.757812 C 524.78125 736.757812 518.851562 742.6875 518.851562 749.996094 C 518.855469 757.304688 524.78125 763.234375 532.089844 763.234375 C 539.402344 763.234375 545.328125 757.304688 545.328125 749.996094 C 545.332031 742.6875 539.398438 736.757812 532.09375 736.757812 "/>
<path fill-rule="evenodd" fill="rgb(0%, 0%, 0%)" fill-opacity="1" d="M 532.09375 702.363281 C 524.78125 702.363281 518.851562 708.285156 518.851562 715.59375 C 518.855469 722.914062 524.78125 728.835938 532.089844 728.835938 C 539.402344 728.835938 545.328125 722.910156 545.328125 715.59375 C 545.332031 708.285156 539.398438 702.363281 532.09375 702.363281 "/>
<path fill-rule="evenodd" fill="rgb(0%, 0%, 0%)" fill-opacity="1" d="M 566.511719 736.757812 C 559.203125 736.757812 553.28125 742.6875 553.28125 749.996094 C 553.285156 757.304688 559.203125 763.234375 566.511719 763.234375 C 573.832031 763.234375 579.75 757.304688 579.75 749.996094 C 579.75 742.6875 573.828125 736.757812 566.511719 736.757812 "/>
<path fill-rule="evenodd" fill="rgb(0%, 0%, 0%)" fill-opacity="1" d="M 3972.179688 659.796875 L 3972.179688 840.203125 L 4070.351562 840.203125 L 4070.351562 917.050781 L 4290.859375 749.992188 L 4070.351562 582.949219 L 4070.351562 659.796875 L 3972.179688 659.796875 "/>
<path fill-rule="evenodd" fill="rgb(0%, 0%, 0%)" fill-opacity="1" d="M 3859.800781 659.800781 L 3945.710938 659.800781 L 3945.710938 840.199219 L 3859.800781 840.199219 L 3859.800781 659.800781 "/>
<path fill-rule="evenodd" fill="rgb(0%, 0%, 0%)" fill-opacity="1" d="M 3747.429688 659.800781 L 3833.339844 659.800781 L 3833.339844 840.199219 L 3747.429688 840.199219 L 3747.429688 659.800781 "/>
<path fill-rule="evenodd" fill="rgb(0%, 0%, 0%)" fill-opacity="1" d="M 1216.109375 750 L 893.183594 588.550781 L 893.183594 911.449219 Z M 930.351562 648.671875 L 1132.980469 750 L 930.351562 851.328125 L 930.351562 648.671875 "/>
<path fill-rule="evenodd" fill="rgb(0%, 0%, 0%)" fill-opacity="1" d="M 1539.320312 750 L 1216.421875 588.550781 L 1216.421875 911.449219 Z M 1253.589844 648.671875 L 1456.210938 750 L 1253.589844 851.328125 L 1253.589844 648.671875 "/>
</svg>
